<svg xmlns="http://www.w3.org/2000/svg" viewBox="0 0 67.75 20">
  <defs>
    <style>
      .a {
      fill: #010101;
      }

      .b {
      fill: silver;
      }

      .c {
      fill: #fbfbfb;
      }
    </style>
  </defs>
  <path class="a" d="M67.22,19.91,59.4,17.6c-.35-.08-5.64-1.65-8.42-2.47l-2.43-.72-3.93-1.15c-1.78-.53-3.55-1-3.94-1.15l-1.94-.59L36.84,11l-.66-.19-.63.59c-.87.83-1.11,1-1.68,1a1.79,1.79,0,0,1-1.62-2.4c.09-.29.08-.35,0-.35s-1.62-.43-5.93-1.71l-2.42-.71c-.39-.1-1.11-.32-1.62-.46-1.73-.53-6.43-1.92-6.74-2l-2-.58c-2-.59-6.91-2-10.73-3.15C1.35.55.09.16,0,.11A39.69,39.69,0,0,1,4.28,0H8.72L9.67.3c.53.16,1.27.38,1.66.48l2.43.72,4.48,1.31c1.51.44,4.2,1.25,6,1.76l3.46,1,1.81.53c.88.27,1.67.49,1.75.49s.17-.1.21-.21.79-1.6,1.66-3.28L34.71.07l1.22,0,1.21,0-1,2C35.6,3,35,4.11,34.91,4.35c-.37.66-1.46,2.81-1.46,2.85a1,1,0,0,0,.34.17c.39.14.41.12.73-.6.25-.55,1.6-3.43,2.2-4.67.33-.69.52-1,.69-1a.24.24,0,0,1,.29.17.6.6,0,0,0,.3.31c.19.07.25.19.25.47s0,.35.29.35a.61.61,0,0,1,.63.67c0,.2,0,.32.14.31a.6.6,0,0,1,.71.35.64.64,0,0,1,.11.62,2,2,0,0,0-.1.28,1.55,1.55,0,0,0,.41,0c.51,0,.77.16.82.64,0,.32.08.37.35.41.46,0,.61.23.55.65s-.06.36.3.36.39,0,.44.27.12.28.19.28c.55,0,.4.54-.22.8l-1.6.67c-.66.28-1.11.52-1,.55l.81.23,1.51.45c.47.15,1.71.51,2.75.81s3,.86,4.37,1.27l2.8.83c.18,0,1.27.36,2.43.71s2.42.73,2.8.82L62,15.68l4.15,1.22,1,.29.48.15,0,1.34C67.77,20.11,67.77,20.1,67.22,19.91ZM39.56,8.58c.31-.36.31-.36,0-.27a4.64,4.64,0,0,1-.63.13c-.4.07-.55.24-.33.38S39.23,8.92,39.56,8.58ZM38.64,8a2.52,2.52,0,0,0,.49-.61,3.52,3.52,0,0,0-1.37.42c-.24.16-.25.2-.11.47s.22.29.3.29A2.47,2.47,0,0,0,38.64,8Zm-1.75.09c.09-.12.08-.19-.07-.34s-.22-.16-.39,0-.19.22,0,.33S36.74,8.29,36.89,8.11ZM35,7.6c.08-.12-.13-.44-.27-.44s-.22.33-.15.45A.28.28,0,0,0,35,7.6Zm1.14-.49c-.21-.21-.23-.21-.4,0s-.18.2,0,.41.2.21.4,0S36.36,7.33,36.15,7.11Zm1.47.36c.22-.26.61-1,.54-1a2.75,2.75,0,0,0-.55.27c-.64.36-.81.59-.61.83S37.37,7.75,37.62,7.47Zm-2.26-1c-.23-.2-.24-.2-.34,0a.38.38,0,0,0,.1.45l.21.23.14-.25C35.59,6.7,35.57,6.64,35.36,6.47Zm1.51.28a2.5,2.5,0,0,0,.43-1.2c-.1-.1-.91.51-1,.78s-.11.3.06.5S36.63,7.1,36.87,6.75Zm-.61-1.24a2.93,2.93,0,0,0,.25-.76s-.18.09-.36.25a1.25,1.25,0,0,1-.48.29c-.07,0-.19.13-.27.28s-.1.33.07.51C35.76,6.41,36,6.27,36.26,5.51Z" transform="translate(0)"/>
  <path class="b" d="M67.22,19.91,59.4,17.6c-.35-.08-5.64-1.65-8.42-2.47l-2.43-.72-3.93-1.15c-1.78-.53-3.55-1-3.94-1.15l-2-.6-1.86-.57a2,2,0,0,1-1-.68L34.59,9l-.74-.8-.26.24a1.11,1.11,0,0,0-.25.3s.51.63,1.12,1.33c1.27,1.41,1.25,1.32.35,2a1.64,1.64,0,0,1-2.41-.55,1.84,1.84,0,0,1-.15-1.53c.09-.29.08-.35,0-.35s-1.62-.43-5.93-1.71l-2.42-.71c-.39-.1-1.11-.32-1.62-.46-1.73-.53-6.43-1.92-6.74-2l-2-.58c-2-.59-6.91-2-10.73-3.15C1.35.55.09.16,0,.11A39.69,39.69,0,0,1,4.28,0H8.72L9.67.3c.53.16,1.27.38,1.66.48l2.43.72,4.48,1.31c1.51.44,4.2,1.25,6,1.76l3.46,1,1.81.53c.88.27,1.67.49,1.75.49s.17-.1.21-.21.79-1.6,1.66-3.28L34.71.07l1.22,0,1.21,0-1,2C35.6,3,35,4.11,34.91,4.35c-.37.66-1.46,2.81-1.46,2.85a1,1,0,0,0,.34.17c.39.14.41.12.73-.6.25-.55,1.6-3.43,2.2-4.67.33-.69.52-1,.69-1a.24.24,0,0,1,.29.17.6.6,0,0,0,.3.31c.19.07.25.19.25.47s0,.35.29.35a.61.61,0,0,1,.63.67c0,.2,0,.32.14.31a.6.6,0,0,1,.71.35.64.64,0,0,1,.11.62,2,2,0,0,0-.1.28,1.55,1.55,0,0,0,.41,0c.51,0,.77.16.82.64,0,.32.08.37.35.41.46,0,.61.23.55.65s-.06.36.3.36.39,0,.44.27.12.28.19.28c.55,0,.4.54-.22.8l-1.6.67c-.66.28-1.11.52-1,.55l.81.23,1.51.45c.47.15,1.71.51,2.75.81s3,.86,4.37,1.27l2.8.83c.18,0,1.27.36,2.43.71s2.42.73,2.8.82L62,15.68l4.15,1.22,1,.29.48.15,0,1.34C67.77,20.11,67.77,20.1,67.22,19.91ZM39.56,8.58c.31-.36.31-.36,0-.27a4.64,4.64,0,0,1-.63.13c-.4.07-.55.24-.33.38S39.23,8.92,39.56,8.58ZM38.64,8a2.52,2.52,0,0,0,.49-.61,3.52,3.52,0,0,0-1.37.42c-.24.16-.25.2-.11.47s.22.29.3.29A2.47,2.47,0,0,0,38.64,8Zm-1.75.09c.09-.12.08-.19-.07-.34s-.22-.16-.39,0-.19.22,0,.33S36.74,8.29,36.89,8.11ZM35,7.6c.08-.12-.13-.44-.27-.44s-.22.33-.15.45A.28.28,0,0,0,35,7.6Zm1.14-.49c-.21-.21-.23-.21-.4,0s-.18.2,0,.41.2.21.4,0S36.36,7.33,36.15,7.11Zm1.47.36c.22-.26.61-1,.54-1a2.75,2.75,0,0,0-.55.27c-.64.36-.81.59-.61.83S37.37,7.75,37.62,7.47Zm-2.26-1c-.23-.2-.24-.2-.34,0a.38.38,0,0,0,.1.45l.21.23.14-.25C35.59,6.7,35.57,6.64,35.36,6.47Zm1.51.28a2.5,2.5,0,0,0,.43-1.2c-.1-.1-.91.51-1,.78s-.11.3.06.5S36.63,7.1,36.87,6.75Zm-.61-1.24a2.93,2.93,0,0,0,.25-.76s-.18.09-.36.25a1.25,1.25,0,0,1-.48.29c-.07,0-.19.13-.27.28s-.1.33.07.51C35.76,6.41,36,6.27,36.26,5.51Z" transform="translate(0)"/>
  <g>
    <path class="c" d="M67.22,19.91,59.4,17.6c-.35-.08-5.64-1.65-8.42-2.47l-2.43-.72c-.59-.16-3.63-1.05-7.33-2.15-2.16-.64-2.81-.86-2.78-1a1.94,1.94,0,0,1,.84-.15,16.41,16.41,0,0,0,2-.25c.66-.13,1.27-.24,1.36-.24s.55-.3.49-.41,1.42.28,6.58,1.81l2.8.83c.18,0,1.27.36,2.43.71s2.42.73,2.8.82L62,15.68l4.15,1.22,1,.29.48.15,0,1.34C67.77,20.11,67.77,20.1,67.22,19.91Z" transform="translate(0)"/>
    <path class="c" d="M26.25,18.41c-.09,0-.12-.16-.06-.35s0-.28-.11-.14-.18.1-.18,0a.22.22,0,0,1,.12-.18.21.21,0,0,0,.06-.2c0-.08.07-.29.21-.48.25-.36.25-.36,0-.48a.72.72,0,0,0-.43-.05c-.26.09-1.08-.13-1.08-.29s-.16,0-.35.1a5.7,5.7,0,0,1-2.08.68A1.84,1.84,0,0,1,21,16.43c-.23-.43-.07-1.36.23-1.36.06,0,.11-.06.11-.15a.22.22,0,0,1,.14-.21c.06,0-.12-.06-.44-.06a1.12,1.12,0,0,0-.62.09.13.13,0,0,1-.18,0c-.08-.06-.09,0-.05.05s0,.16-.13.2a.64.64,0,0,0-.35.34,1.85,1.85,0,0,1-.77.83c-.2.07-.27-.09-.09-.2s.11-.29-.13-.21-.22,0-.1-.1a1,1,0,0,0,.18-.42,1.18,1.18,0,0,1,.28-.49c.23-.24.23-.24,0-.36a1.09,1.09,0,0,0-.59,0c-.94.16-1.26-.23-.65-.8a1.61,1.61,0,0,1,.49-.37,2.15,2.15,0,0,0,.47-.41c.22-.23.36-.34.31-.25s.07,0,.23-.17a1.8,1.8,0,0,1,.36-.34,2.18,2.18,0,0,0,.34-.14.52.52,0,0,1,.49,0c.17.1.11.2-.53.87a6.25,6.25,0,0,0-.72.84s.2.07.46.07a1.21,1.21,0,0,0,.82-.27l.37-.26.29.24c.27.23.28.25.09.38s-.16.41.23.57.36.1.69-.16a3.36,3.36,0,0,1,.43-.29c.21,0,.7-.14.66-.21a1.18,1.18,0,0,0-.45-.16c-.74-.13-.11-.31.94-.25.78,0,1,.08,1.33.32a1.18,1.18,0,0,1,.54,1.36l-.07.53L26,15c.21-.24.4-.36.4-.28s0,.11.21,0,.19-.24.15-.29.08-.15.25-.21a2.85,2.85,0,0,0,.49-.22c.13-.07.22-.05.35.07s.1.23-.54.86a4,4,0,0,0-.7.81c0,.09.19.13.49.13s.48,0,.48-.08.5-.39.65-.41a1.69,1.69,0,0,1,.32.19c.25.18.25.2.08.34s-.14.49.24.65.27.12-.21.2a1.82,1.82,0,0,1-.67,0,.27.27,0,0,0-.25.06.12.12,0,0,1-.17.06c-.05-.05-.09,0-.09.08a.48.48,0,0,1-.22.28,2.91,2.91,0,0,0-.55.68,3.63,3.63,0,0,1-.35.54ZM23,16.17a3.39,3.39,0,0,0,1.44-.91c.51-.54.61-.83.34-1s-.69-.19-.69,0-.07.11-.17.11a3.79,3.79,0,0,0-1.61.9c-.33.41-.34.63,0,1s.26.26.41.13A.55.55,0,0,1,23,16.17Z" transform="translate(0)"/>
    <path class="c" d="M33,12.07a1.8,1.8,0,0,1-.76-2.14c.09-.29.08-.35,0-.35s-1.62-.43-5.93-1.71l-2.42-.71c-.39-.1-1.11-.32-1.62-.46-1.73-.53-6.43-1.92-6.74-2l-2-.58c-2-.59-6.91-2-10.73-3.15C1.35.55.09.16,0,.11A39.69,39.69,0,0,1,4.28,0H8.72L9.67.3c.53.16,1.27.38,1.66.48l2.43.72,4.48,1.31c1.51.44,4.2,1.25,6,1.76l3.46,1,1.81.53c.88.27,1.67.49,1.75.49s.17-.1.21-.21.79-1.6,1.66-3.28L34.71.07l1.22,0,1.21,0-1,2C35.6,3,35,4.11,34.91,4.35c-.37.66-1.46,2.81-1.46,2.85a1,1,0,0,0,.34.17c.39.14.41.12.73-.6.25-.55,1.6-3.43,2.2-4.67.33-.69.52-1,.69-1a.24.24,0,0,1,.29.17.6.6,0,0,0,.3.31c.19.07.25.19.25.47s0,.35.29.35a.61.61,0,0,1,.63.67c0,.2,0,.32.14.31a.6.6,0,0,1,.71.35.64.64,0,0,1,.11.62,2,2,0,0,0-.1.28,1.55,1.55,0,0,0,.41,0c.51,0,.77.16.82.64,0,.32.08.37.35.41.46,0,.61.23.55.65s-.06.36.3.36.39,0,.44.27.12.28.19.28c.24,0,.4.18.33.37s-.72.53-2.15,1.1l-1.08.46c-.27.12-2.06.83-3.23,1.28a1.94,1.94,0,0,0-.48.24c-.11.09-.42-.19-1.4-1.24L33.83,8.13l-.26.28-.26.28.64.73c.34.4.86,1,1.14,1.3l.51.58-.35.33c-.58.56-.85.7-1.38.7A1.39,1.39,0,0,1,33,12.07ZM37.11,10c.2-.25-.1-.39-.41-.19s-.08.34.14.34A.44.44,0,0,0,37.11,10ZM38,9.59c0-.05,0-.19-.09-.3s-.17-.2-.34,0a.32.32,0,0,0-.11.3C37.57,9.71,38,9.73,38,9.59Zm-1.4-.27c.17-.13.18-.15,0-.29s-.19-.12-.34,0a.33.33,0,0,0-.1.3C36.29,9.5,36.38,9.5,36.62,9.32Zm2.83-.61c.39-.45.4-.49.15-.41L39,8.46a1.86,1.86,0,0,0-.59.26c-.25.17-.25.2-.07.47s.2.27.43.14A4.18,4.18,0,0,0,39.45,8.71Zm-1.9,0c0-.11-.31-.51-.36-.45L37,8.51c-.2.26,0,.56.32.4C37.45,8.85,37.55,8.76,37.55,8.72ZM36.1,8.53c0-.14,0-.15-.13,0a.46.46,0,0,0-.15.3c0,.13,0,.14.13,0A.61.61,0,0,0,36.1,8.53ZM38.64,8a2.52,2.52,0,0,0,.49-.61,3.52,3.52,0,0,0-1.37.42c-.24.16-.25.2-.11.47s.22.29.3.29A2.47,2.47,0,0,0,38.64,8Zm-1.75.09c.09-.12.08-.19-.07-.34s-.22-.16-.39,0-.19.22,0,.33S36.74,8.29,36.89,8.11ZM35,7.6c.08-.12-.13-.44-.27-.44s-.22.33-.15.45A.28.28,0,0,0,35,7.6Zm1.14-.49c-.21-.21-.23-.21-.4,0s-.18.2,0,.41.2.21.4,0S36.36,7.33,36.15,7.11Zm1.47.36c.22-.26.61-1,.54-1a2.75,2.75,0,0,0-.55.27c-.64.36-.81.59-.61.83S37.37,7.75,37.62,7.47Zm-2.26-1c-.23-.2-.24-.2-.34,0a.38.38,0,0,0,.1.45l.21.23.14-.25C35.59,6.7,35.57,6.64,35.36,6.47Zm1.51.28a2.5,2.5,0,0,0,.43-1.2c-.1-.1-.91.51-1,.78s-.11.3.06.5S36.63,7.1,36.87,6.75Zm-.61-1.24a2.93,2.93,0,0,0,.25-.76s-.18.09-.36.25a1.25,1.25,0,0,1-.48.29c-.07,0-.19.13-.27.28s-.1.33.07.51C35.76,6.41,36,6.27,36.26,5.51Z" transform="translate(0)"/>
  </g>
</svg>
